<?xml version="1.0" encoding="UTF-8"?>
 <?xml-stylesheet type="text/css" href="../css/svg.css"?>
<svg  class="svg-class" width="13.229mm" height="9.0924mm" version="1.1" viewBox="0 0 13.229 9.0924" xmlns="http://www.w3.org/2000/svg">
				<g transform="translate(-31.192 -89.845)">
								<g transform="matrix(.34365 0 0 .34365 20.473 64.937)">
												<path class="svg-menu-icon" d="m33.331 79.872h34.219c1.1848 0 2.1387 0.95384 2.1387 2.1387s-0.95384 2.1387-2.1387 2.1387h-34.219c-1.1848 0-2.1387-0.95384-2.1387-2.1387s0.95384-2.1387 2.1387-2.1387z"/>
												<path class="svg-menu-icon" d="m33.331 94.66h34.219c1.1848 0 2.1387 0.95384 2.1387 2.1387s-0.95384 2.1387-2.1387 2.1387h-34.219c-1.1848 0-2.1387-0.95384-2.1387-2.1387s0.95384-2.1387 2.1387-2.1387z"/>
												<path class="svg-menu-icon" d="m33.331 72.479h34.219c1.1848 0 2.1387 0.95384 2.1387 2.1387s-0.95384 2.1387-2.1387 2.1387h-34.219c-1.1848 0-2.1387-0.95384-2.1387-2.1387s0.95384-2.1387 2.1387-2.1387z"/>
												<path class="svg-menu-icon" d="m33.331 87.266h34.219c1.1848 0 2.1387 0.95384 2.1387 2.1387s-0.95384 2.1387-2.1387 2.1387h-34.219c-1.1848 0-2.1387-0.95384-2.1387-2.1387s0.95384-2.1387 2.1387-2.1387z"/>
								</g>
				</g>
</svg>
